<?xml version="1.0" encoding="utf-8"?>
<!-- Generator: Adobe Illustrator 19.2.1, SVG Export Plug-In . SVG Version: 6.00 Build 0)  -->
<svg version="1.1" id="Guide" xmlns="http://www.w3.org/2000/svg" xmlns:xlink="http://www.w3.org/1999/xlink" x="0px" y="0px"
	 viewBox="0 0 30 30.3" style="enable-background:new 0 0 30 30.3;" xml:space="preserve">
<style type="text/css">
	.st0{fill:none;}
	.st1{fill:url(#SVGID_1_);}
	.st2{fill:url(#SVGID_2_);}
	.st3{fill:url(#SVGID_3_);}
	.st4{fill:url(#SVGID_4_);}
</style>
<title>comp-icon</title>
<rect y="0.2" class="st0" width="30" height="30"/>
<g id="Layer_5">
	<linearGradient id="SVGID_1_" gradientUnits="userSpaceOnUse" x1="15.5661" y1="4.6643" x2="15.5661" y2="42.466">
		<stop  offset="0" style="stop-color:#4bd5e9 "/>
		<stop  offset="1" style="stop-color:#00a5e2 "/>
	</linearGradient>
	<path class="st1" d="M15.6,10.7c2.1-0.9,2.8-2.4,2.6-3.5c0-0.6-0.6-1.1-1.2-1.1c-0.4,0.1-0.8,0.2-1.2,0.4c-0.2,0.1-0.4,0.1-0.6,0
		C14.9,6.2,14.4,6,14,6c-0.6,0-1.1,0.5-1.1,1.1C12.9,8.8,14,10.3,15.6,10.7z"/>
	<linearGradient id="SVGID_2_" gradientUnits="userSpaceOnUse" x1="15.6" y1="4.6643" x2="15.6" y2="42.466">
		<stop  offset="0" style="stop-color:#4bd5e9 "/>
		<stop  offset="1" style="stop-color:#00a5e2 "/>
	</linearGradient>
	<path class="st2" d="M20.1,16.9c0.7,0,1.2-0.5,1.2-1.2V1.2c0-0.7-0.5-1.2-1.2-1.2h-9c-0.7,0-1.2,0.5-1.2,1.2v14.5
		c0,0.7,0.5,1.2,1.2,1.2H20.1z M18.6,0.8c1.1,0,2.1,0.9,2.1,2c0,0,0,0.1,0,0.1c0,0.3-0.2,0.5-0.5,0.5s-0.5-0.2-0.5-0.5
		c0-0.6-0.5-1.1-1.1-1.1c-0.3,0-0.5-0.2-0.5-0.4c0,0,0,0,0-0.1C18.1,1,18.3,0.8,18.6,0.8C18.6,0.8,18.6,0.8,18.6,0.8z M11.9,7
		C12,5.9,13,5.1,14.1,5.1c0.5,0,1.1,0.2,1.5,0.5c0.5-0.3,1-0.4,1.5-0.4c1.1,0,2,0.8,2.2,1.9l0,0c0.2,0.9,0,1.9-0.6,2.6
		c-0.7,1-1.7,1.8-2.8,2.2l0,0c-0.2,0.1-0.3,0.1-0.5,0l0,0C12.6,10.7,11.6,8.6,11.9,7z M10.4,14c0-0.3,0.2-0.5,0.5-0.5
		s0.5,0.2,0.5,0.5c0,0.6,0.5,1.1,1.1,1.1c0.3,0,0.5,0.2,0.5,0.5s-0.2,0.5-0.5,0.5C11.4,16.1,10.4,15.1,10.4,14z"/>
	<linearGradient id="SVGID_3_" gradientUnits="userSpaceOnUse" x1="15" y1="4.6643" x2="15" y2="42.466">
		<stop  offset="0" style="stop-color:#4bd5e9 "/>
		<stop  offset="1" style="stop-color:#00a5e2 "/>
	</linearGradient>
	<path class="st3" d="M6.8,4.9v20.8h16.4V4.9h-0.9v10.8c0,0.9-0.5,1.7-1.3,2c-0.3,0.8-1.1,1.4-2,1.4h-9c-0.6,0-1.2-0.2-1.6-0.6
		c-0.4-0.4-0.6-1-0.6-1.6v-12C7.8,4.9,6.8,4.9,6.8,4.9z"/>
	<linearGradient id="SVGID_4_" gradientUnits="userSpaceOnUse" x1="15.0006" y1="4.6643" x2="15.0006" y2="42.466">
		<stop  offset="0" style="stop-color:#4bd5e9 "/>
		<stop  offset="1" style="stop-color:#00a5e2 "/>
	</linearGradient>
	<path class="st4" d="M23.7,2.4h-1.4v1.4h1.4c0.3,0,0.5,0.3,0.5,0.6v21.7c0,0.3-0.2,0.5-0.5,0.5H6.3c-0.3,0-0.5-0.2-0.5-0.4
		c0,0,0,0,0-0.1V4.4c0-0.3,0.2-0.5,0.5-0.6h1.4V2.4H6.3c-1.1,0-2.1,0.9-2.1,2c0,0,0,0.1,0,0.1v23.7c0,1.2,0.9,2.1,2.1,2.1h18.1
		c0.4,0,0.8-0.1,1-0.4c0.3-0.3,0.4-0.6,0.4-1l0,0V4.5c0-1.1-0.9-2.1-2-2.1C23.8,2.4,23.7,2.4,23.7,2.4z M15.8,28.9h-1.6
		c-0.3,0-0.5-0.2-0.5-0.5s0.2-0.5,0.5-0.5h1.6c0.3,0,0.5,0.2,0.5,0.5C16.3,28.7,16.1,28.9,15.8,28.9z"/>
</g>
</svg>
