<?xml version="1.0" encoding="utf-8"?>
<!-- Generator: Adobe Illustrator 19.1.0, SVG Export Plug-In . SVG Version: 6.00 Build 0)  -->
<svg fill="7cc131" version="1.1" id="Layer_2" xmlns="http://www.w3.org/2000/svg" xmlns:xlink="http://www.w3.org/1999/xlink" x="0px" y="0px"
	 viewBox="-5 21 50 45" style="enable-background:new -5 21 50 45;" xml:space="preserve">
<style type="text/css">
	.st0{fill:#4bd5e9;}
</style>
<title>customer-icon</title>
<path class="st0" d="M23.5,24.4c-3.9,0-7.6,1.4-10.5,4c0.6,1,1,2.1,1,3.3l0,0c0,0.5,0,1.1,0.1,1.6c3.8-5.2,11.1-6.4,16.3-2.6
	s6.4,11.1,2.6,16.3c-2.2,3-5.6,4.7-9.2,4.8c0.6,0.5,1.2,0.9,1.8,1.4l0,0c0.8,0.6,1.5,1.4,2,2.3c8.4-2.3,13.4-10.9,11.2-19.4
	C36.8,29.3,30.6,24.5,23.5,24.4z"/>
<path class="st0" d="M23.1,56.6c-1.8-1.4-2.9-2.4-4.5-3.9c-0.4-0.5-1-0.7-1.7-0.8c-0.5,0-0.9,0.2-1.3,0.5l-1.1,1
	c-3.1-3.7-5.4-8-6.8-12.6l1.4-0.4c1-0.4,1.6-1.5,1.4-2.6c-0.3-2.5-0.5-3.7-0.7-5.9c0-1.1-0.9-2.1-2-2.2H7.3c-4.1,0-7.6,4.7-6.3,10.5
	C2.6,47.4,6.2,54,11.3,59.4c1.8,2,4.3,3.1,6.9,3.2c2.3,0.1,4.5-1.1,5.6-3.1C24.4,58.5,24,57.3,23.1,56.6z"/>
<path class="st0" d="M18.7,40.5c-0.8,0.7-1.6,1.5-2.2,2.4c-0.3,0.4-0.4,0.9-0.6,1.4c-0.1,0.4,0.1,0.8,0.5,0.9c0.1,0,0.1,0,0.2,0h5.2
	c0.6,0,1.2-0.5,1.2-1.2c0-0.6-0.5-1.2-1.2-1.2h-2.4l0.1-0.1c0.1-0.2,0.5-0.5,1.1-1.1c0.4-0.4,0.9-0.8,1.3-1.3
	c0.3-0.4,0.6-0.9,0.8-1.3c0.2-0.4,0.3-0.9,0.3-1.4c0-0.8-0.3-1.6-0.9-2.2c-0.7-0.6-1.6-0.9-2.5-0.9c-0.9,0-1.7,0.2-2.4,0.7
	c-0.4,0.3-0.7,0.7-0.9,1.2c-0.2,0.6,0.1,1.3,0.7,1.6c0.1,0,0.2,0.1,0.3,0.1h0.1c0.5,0,1-0.3,1.2-0.8c0-0.1,0.1-0.3,0.2-0.4
	c0.2-0.2,0.5-0.3,0.8-0.3c0.3,0,0.5,0.1,0.8,0.3c0.2,0.2,0.3,0.5,0.3,0.8c0,0.4-0.1,0.7-0.4,1C19.8,39.5,19.3,40,18.7,40.5z"/>
<path class="st0" d="M29.2,34.8h-0.9c-0.2,0-0.5,0.1-0.6,0.3l-4,5.9c-0.1,0.2-0.2,0.4-0.2,0.6v1c0,0.4,0.3,0.8,0.8,0.8h3.3v0.8
	c-0.1,0.7,0.4,1.2,1.1,1.3c0.7,0.1,1.2-0.4,1.3-1.1c0-0.1,0-0.1,0-0.2v-0.8H30c0.6,0,1.2-0.5,1.2-1.2c0-0.6-0.5-1.2-1.2-1.2h-0.1
	v-5.5C29.9,35.1,29.6,34.8,29.2,34.8z M27.5,41H26l1.5-2.2V41z"/>
</svg>

