<?xml version="1.0" encoding="utf-8"?>
<!-- Generator: Adobe Illustrator 19.2.1, SVG Export Plug-In . SVG Version: 6.00 Build 0)  -->
<svg version="1.1" id="Layer_2" xmlns="http://www.w3.org/2000/svg" xmlns:xlink="http://www.w3.org/1999/xlink" x="0px" y="0px"
	 viewBox="0 0 50 45" style="enable-background:new 0 0 50 45;" xml:space="preserve">
<style type="text/css">
	.st0{fill:url(#SVGID_1_);}
	.st1{fill:url(#SVGID_2_);}
</style>
<title>live-chat-icon</title>
<g>
	<linearGradient id="SVGID_1_" gradientUnits="userSpaceOnUse" x1="29.25" y1="3.2327" x2="29.25" y2="42.7201">
		<stop  offset="0" style="stop-color:#4bd5e9 "/>
		<stop  offset="1" style="stop-color:#00a5e2 "/>
	</linearGradient>
	<path class="st0" d="M49.7,18c0-9.5-9.2-17.2-20.5-17.2S8.8,8.5,8.8,18S18,35.3,29.3,35.3c0.9,0,1.9-0.1,2.8-0.2
		c4.3,2.8,7.6,4.3,9.5,4.5h0.2c1,0,1.9-0.9,1.9-1.9c0-0.3-0.1-0.6-0.2-0.9c-0.9-1.7-1.3-3.6-1.1-5.5C47,27.9,49.7,23.1,49.7,18z
		 M23.7,20.6c-1.7,0-3-1.3-3-3s1.3-3,3-3s3,1.3,3,3C26.7,19.2,25.4,20.6,23.7,20.6L23.7,20.6L23.7,20.6z M34.8,20.6
		c-1.7,0-3-1.3-3-3s1.3-3,3-3s3,1.3,3,3C37.8,19.2,36.5,20.6,34.8,20.6L34.8,20.6L34.8,20.6z"/>
	<linearGradient id="SVGID_2_" gradientUnits="userSpaceOnUse" x1="15.3" y1="3.2327" x2="15.3" y2="42.7201">
		<stop  offset="0" style="stop-color:#4bd5e9 "/>
		<stop  offset="1" style="stop-color:#00a5e2 "/>
	</linearGradient>
	<path class="st1" d="M13.1,31.7c-2-1.6-3.6-3.6-4.8-5.8c-2.4-4.6-2.4-10.1,0-14.7l0.3-0.5c-5,2.9-8.3,7.7-8.3,13.1
		c0,4.9,2.6,9.4,7.2,12.4c0.9,3.3-1.1,6.9-1.1,6.9c-0.2,0.3-0.1,0.7,0.2,0.9c0.1,0.1,0.2,0.1,0.3,0.1H7c2.3-0.3,6.3-2.6,9.4-4.5
		c1,0.1,2.1,0.2,3.1,0.2c3.8,0,7.5-1,10.8-2.8c-0.7,0.1-1.4,0.1-2.1,0.1C22.7,37,17.4,35.3,13.1,31.7z"/>
</g>
</svg>
