<?xml version="1.0" encoding="utf-8"?>
<!-- Generator: Adobe Illustrator 19.2.1, SVG Export Plug-In . SVG Version: 6.00 Build 0)  -->
<svg version="1.1" id="Layer_2" xmlns="http://www.w3.org/2000/svg" xmlns:xlink="http://www.w3.org/1999/xlink" x="0px" y="0px"
	 viewBox="0 0 50 45" style="enable-background:new 0 0 50 45;" xml:space="preserve">
<style type="text/css">
	.st0{fill:url(#SVGID_1_);}
	.st1{fill:url(#SVGID_2_);}
	.st2{fill:url(#SVGID_3_);}
	.st3{fill:url(#SVGID_4_);}
	.st4{fill:url(#SVGID_5_);}
</style>
<title>notice-icon</title>
<g>
	<linearGradient id="SVGID_1_" gradientUnits="userSpaceOnUse" x1="29.2018" y1="8.1882" x2="29.2018" y2="40.7723">
		<stop  offset="0" style="stop-color:#4bd5e9 "/>
		<stop  offset="1" style="stop-color:#00a5e2 "/>
	</linearGradient>
	<path class="st0" d="M22.1,29.6l14.3,7.6v-31l-14.3,7.5C22.1,13.7,22.1,29.6,22.1,29.6z"/>
	<linearGradient id="SVGID_2_" gradientUnits="userSpaceOnUse" x1="43.8518" y1="8.1882" x2="43.8518" y2="40.7723">
		<stop  offset="0" style="stop-color:#4bd5e9 "/>
		<stop  offset="1" style="stop-color:#00a5e2 "/>
	</linearGradient>
	<path class="st1" d="M41.4,20.4h5v2.5h-5V20.4z"/>
	<linearGradient id="SVGID_3_" gradientUnits="userSpaceOnUse" x1="42.5018" y1="8.1882" x2="42.5018" y2="40.7723">
		<stop  offset="0" style="stop-color:#4bd5e9 "/>
		<stop  offset="1" style="stop-color:#00a5e2 "/>
	</linearGradient>
	<path class="st2" d="M44.4,12.3l1,2.3l-4.7,1.9l-1-2.3L44.4,12.3z"/>
	<linearGradient id="SVGID_4_" gradientUnits="userSpaceOnUse" x1="42.5018" y1="8.1882" x2="42.5018" y2="40.7723">
		<stop  offset="0" style="stop-color:#4bd5e9 "/>
		<stop  offset="1" style="stop-color:#00a5e2 "/>
	</linearGradient>
	<path class="st3" d="M44.4,31l-4.7-1.9l1-2.3l4.7,1.9L44.4,31z"/>
	<linearGradient id="SVGID_5_" gradientUnits="userSpaceOnUse" x1="12.95" y1="8.1882" x2="12.95" y2="40.7723">
		<stop  offset="0" style="stop-color:#4bd5e9 "/>
		<stop  offset="1" style="stop-color:#00a5e2 "/>
	</linearGradient>
	<path class="st4" d="M19.5,14.5h-11V17H8.1c-2.5,0.1-4.5,2.3-4.4,4.8c0.1,2.4,2,4.3,4.4,4.4h0.4v2.5h2.8l2.8,10.1h8.2l-2.8-9.6
		C19.5,29.2,19.5,14.5,19.5,14.5z"/>
</g>
</svg>
