<?xml version="1.0" encoding="utf-8"?>
<!-- Generator: Adobe Illustrator 19.2.1, SVG Export Plug-In . SVG Version: 6.00 Build 0)  -->
<svg version="1.1" id="Layer_2" xmlns="http://www.w3.org/2000/svg" xmlns:xlink="http://www.w3.org/1999/xlink" x="0px" y="0px"
	 viewBox="0 0 50 45" style="enable-background:new 0 0 50 45;" xml:space="preserve">
<style type="text/css">
	.st0{fill:url(#SVGID_1_);}
</style>
<title>promo-icon</title>
<g>
	<linearGradient id="SVGID_1_" gradientUnits="userSpaceOnUse" x1="25" y1="7.491" x2="25" y2="43.4807">
		<stop  offset="0" style="stop-color:#4bd5e9 "/>
		<stop  offset="1" style="stop-color:#00a5e2 "/>
	</linearGradient>
	<path class="st0" d="M45.9,16.6c-0.2-0.2-0.4-0.3-0.6-0.3H33.1c1.6,0,3.2-0.6,4.4-1.8c1.2-1.1,1.8-2.7,1.8-4.4
		c0-1.6-0.6-3.2-1.8-4.4c-1.1-1.2-2.7-1.8-4.4-1.8c-1.8-0.1-3.5,0.7-4.6,2.1l-3.6,4.6L21.4,6c-1.1-1.4-2.8-2.2-4.6-2.1
		c-1.6,0-3.2,0.6-4.4,1.8c-1.2,1.1-1.8,2.7-1.8,4.4c0,1.6,0.6,3.2,1.8,4.4c1.1,1.2,2.7,1.8,4.4,1.8H4.6c-0.5,0-0.9,0.3-0.9,0.8
		c0,0,0,0,0,0.1V26c0,0.5,0.3,0.9,0.8,0.9c0,0,0,0,0.1,0h2.7v11.5c0,1.5,1.1,2.7,2.6,2.7H10h30c1.5,0,2.6-1.2,2.7-2.6l0,0V26.9h2.7
		c0.5,0,0.9-0.3,0.9-0.8V26v-8.8C46.1,17,46.1,16.7,45.9,16.6z M31.2,8.3c0.5-0.6,1.2-0.9,1.9-0.9c1.5,0,2.6,1.2,2.7,2.6l0,0
		c0,1.5-1.2,2.6-2.6,2.7l0,0h-5.4L31.2,8.3z M16.7,12.8c-1.5,0-2.6-1.2-2.6-2.6l0,0c0-1.5,1.2-2.6,2.6-2.6l0,0
		c0.7,0,1.4,0.3,1.9,0.9l3.5,4.4L16.7,12.8L16.7,12.8z M29.3,21.6v14.5c0,0.4-0.2,0.8-0.5,1.1c-0.4,0.3-0.8,0.4-1.3,0.4h-5.3
		c-0.5,0-0.9-0.1-1.3-0.4c-0.3-0.2-0.5-0.6-0.5-1.1V16.3h8.8v5.3H29.3z"/>
</g>
</svg>
