<?xml version="1.0" encoding="utf-8"?>
<!-- Generator: Adobe Illustrator 19.1.0, SVG Export Plug-In . SVG Version: 6.00 Build 0)  -->
<svg version="1.1" id="Capa_1" xmlns="http://www.w3.org/2000/svg" xmlns:xlink="http://www.w3.org/1999/xlink" x="0px" y="0px"
	 viewBox="-160 72.7 469.3 469.3" style="enable-background:new -160 72.7 469.3 469.3;" xml:space="preserve">
<style type="text/css">
	.st0{fill:#08BBFF;}
</style>
<g>
	<g>
		<g>
			<path class="st0" d="M277.3,456.7h-74.7c-47.1,0-85.3-38.3-85.3-85.3s38.3-85.3,85.3-85.3h74.7c5.9,0,10.7-4.8,10.7-10.7v-32
				c0-22.4-17.4-40.6-39.3-42.3L187.5,94c-5.7-9.9-14.8-17-25.8-19.9c-10.9-2.9-22.3-1.4-32.1,4.3l-210,122.3h-36.9
				c-23.5,0-42.7,19.1-42.7,42.7v256c0,23.5,19.1,42.7,42.7,42.7h362.7c23.5,0,42.7-19.1,42.7-42.7v-32
				C288,461.4,283.2,456.7,277.3,456.7z M200.7,160.1l23.2,40.6h-93L200.7,160.1z M-38,200.7L140.3,96.8c4.8-2.8,10.5-3.6,15.8-2.1
				c5.4,1.5,10,5,12.8,9.9l0,0l-164.9,96H-38z"/>
			<path class="st0" d="M277.3,307.3h-74.7c-35.3,0-64,28.7-64,64s28.7,64,64,64h74.7c17.6,0,32-14.4,32-32v-64
				C309.3,321.7,295,307.3,277.3,307.3z M202.7,392.7c-11.8,0-21.3-9.6-21.3-21.3s9.6-21.3,21.3-21.3s21.3,9.6,21.3,21.3
				C224,383.1,214.4,392.7,202.7,392.7z"/>
		</g>
	</g>
</g>
</svg>
